<svg width="78" height="80" viewBox="0 0 78 80" fill="none" xmlns="http://www.w3.org/2000/svg">
<g clip-path="url(#clip0_3369_537)">
<path opacity="0.4" d="M41.1283 17C41.1283 18.1755 40.1754 19.1283 38.9999 19.1283C37.8244 19.1283 36.8715 18.1755 36.8715 17C36.8715 15.8245 37.8244 14.8715 38.9999 14.8715C40.1754 14.8715 41.1283 15.8245 41.1283 17Z" fill="#ED1C24"/>
<path opacity="0.4" d="M41.1283 2.12848C41.1283 3.30397 40.1754 4.25693 38.9999 4.25693C37.8244 4.25693 36.8715 3.30397 36.8715 2.12848C36.8715 0.952993 37.8244 3.05176e-05 38.9999 3.05176e-05C40.1754 3.05176e-05 41.1283 0.952993 41.1283 2.12848Z" fill="#ED1C24"/>
<path d="M41.1283 9.56418C41.1283 10.7397 40.1754 11.6926 38.9999 11.6926C37.8244 11.6926 36.8715 10.7397 36.8715 9.56418C36.8715 8.38869 37.8244 7.43573 38.9999 7.43573C40.1754 7.43573 41.1283 8.38869 41.1283 9.56418Z" fill="#ED1C24"/>
<path d="M33.4073 3.05663C33.995 4.07468 33.6463 5.37638 32.6282 5.96419C31.6102 6.55187 30.3084 6.20313 29.7207 5.18508C29.1329 4.1671 29.4818 2.86533 30.4997 2.27759C31.5178 1.68984 32.8195 2.03865 33.4073 3.05663Z" fill="#ED1C24"/>
<path d="M27.185 7.72091C28.2031 8.30866 28.5518 9.61043 27.9641 10.6285C27.3763 11.6465 26.0745 11.9953 25.0566 11.4075C24.0385 10.8198 23.6897 9.51801 24.2774 8.50003C24.8653 7.48198 26.167 7.13317 27.185 7.72091Z" fill="#ED1C24"/>
<path d="M24.1284 14.8715C25.3039 14.8715 26.2568 15.8245 26.2568 17C26.2568 18.1755 25.3039 19.1283 24.1284 19.1283C22.9529 19.1283 22 18.1755 22 17C22 15.8245 22.9529 14.8715 24.1284 14.8715Z" fill="#ED1C24"/>
<path d="M25.0565 22.5925C26.0746 22.0047 27.3763 22.3534 27.9641 23.3715C28.5518 24.3895 28.203 25.6912 27.185 26.2791C26.167 26.8668 24.8652 26.5179 24.2775 25.4999C23.6897 24.482 24.0385 23.1802 25.0565 22.5925Z" fill="#ED1C24"/>
<path d="M29.7211 28.8148C30.3088 27.7967 31.6106 27.448 32.6286 28.0357C33.6466 28.6235 33.9954 29.9252 33.4077 30.9432C32.8199 31.9612 31.5181 32.3101 30.5001 31.7223C29.4821 31.1345 29.1333 29.8328 29.7211 28.8148Z" fill="#ED1C24"/>
<path d="M36.8715 31.8714C36.8715 30.696 37.8244 29.743 38.9998 29.743C40.1754 29.743 41.1283 30.696 41.1283 31.8714C41.1283 33.0469 40.1754 33.9998 38.9998 33.9998C37.8244 33.9998 36.8715 33.0469 36.8715 31.8714Z" fill="#ED1C24"/>
<path d="M44.5922 30.9432C44.0044 29.9252 44.3532 28.6235 45.3712 28.0357C46.3893 27.4479 47.691 27.7967 48.2788 28.8148C48.8665 29.8328 48.5176 31.1345 47.4997 31.7223C46.4817 32.31 45.1799 31.9612 44.5922 30.9432Z" fill="#ED1C24"/>
<path d="M50.8147 26.279C49.7966 25.6913 49.4479 24.3895 50.0356 23.3715C50.6234 22.3535 51.9252 22.0047 52.9431 22.5924C53.9612 23.1802 54.31 24.4819 53.7222 25.4999C53.1344 26.518 51.8327 26.8668 50.8147 26.279Z" fill="#ED1C24"/>
<path opacity="0.4" d="M53.8716 19.1283C52.6961 19.1283 51.7432 18.1755 51.7432 17C51.7432 15.8244 52.6961 14.8715 53.8716 14.8715C55.0471 14.8715 56 15.8244 56 17C56 18.1755 55.0471 19.1283 53.8716 19.1283Z" fill="#ED1C24"/>
<path opacity="0.4" d="M52.9432 11.4075C51.9251 11.9952 50.6234 11.6464 50.0356 10.6284C49.4479 9.61039 49.7967 8.30862 50.8147 7.72088C51.8327 7.13314 53.1345 7.48195 53.7222 8.5C54.31 9.51798 53.9612 10.8197 52.9432 11.4075Z" fill="#ED1C24"/>
<path opacity="0.4" d="M48.2788 5.18508C47.691 6.20313 46.3892 6.55187 45.3712 5.96419C44.3532 5.37638 44.0044 4.07468 44.5921 3.05663C45.1799 2.03865 46.4817 1.68984 47.4997 2.27759C48.5177 2.86533 48.8665 4.1671 48.2788 5.18508Z" fill="#ED1C24"/>
<path d="M33.6247 11.4388C34.6427 12.0266 34.9915 13.3283 34.4038 14.3463C33.816 15.3644 32.5142 15.7131 31.4963 15.1254C30.4782 14.5376 30.1294 13.2359 30.7171 12.2179C31.305 11.1998 32.6067 10.8511 33.6247 11.4388Z" fill="#ED1C24"/>
<path d="M31.4962 18.8745C32.5143 18.2868 33.816 18.6355 34.4038 19.6536C34.9915 20.6716 34.6426 21.9734 33.6247 22.5611C32.6067 23.1489 31.3049 22.8001 30.7172 21.7821C30.1294 20.7641 30.4782 19.4623 31.4962 18.8745Z" fill="#ED1C24"/>
<path d="M36.8715 24.4357C36.8715 23.2602 37.8244 22.3073 38.9998 22.3073C40.1754 22.3073 41.1283 23.2602 41.1283 24.4357C41.1283 25.6112 40.1754 26.5642 38.9998 26.5642C37.8244 26.5642 36.8715 25.6112 36.8715 24.4357Z" fill="#ED1C24"/>
<path d="M44.3751 22.5611C43.3571 21.9733 43.0083 20.6716 43.5961 19.6535C44.1838 18.6355 45.4856 18.2867 46.5035 18.8745C47.5216 19.4622 47.8704 20.764 47.2827 21.782C46.6948 22.8001 45.3931 23.1488 44.3751 22.5611Z" fill="#ED1C24"/>
<path d="M46.5036 15.1254C45.4855 15.7131 44.1838 15.3644 43.596 14.3463C43.0083 13.3283 43.3572 12.0266 44.3751 11.4388C45.3931 10.8511 46.6949 11.1998 47.2826 12.2179C47.8704 13.2359 47.5216 14.5376 46.5036 15.1254Z" fill="#ED1C24"/>
<path d="M12 66C15.6819 66 18.6667 63.0152 18.6667 59.3333C18.6667 55.6514 15.6819 52.6667 12 52.6667C8.31814 52.6667 5.33337 55.6514 5.33337 59.3333C5.33337 63.0152 8.31814 66 12 66Z" stroke="#ED1C24" stroke-width="2"/>
<path fill-rule="evenodd" clip-rule="evenodd" d="M22.6667 79.3333C21.3334 73.1111 17.7778 70 12 70C6.22226 70 2.66671 73.1111 1.33337 79.3333H22.6667Z" stroke="#ED1C24" stroke-width="2" stroke-linecap="round" stroke-linejoin="round"/>
<path d="M39 66C42.6819 66 45.6667 63.0152 45.6667 59.3333C45.6667 55.6514 42.6819 52.6667 39 52.6667C35.3181 52.6667 32.3334 55.6514 32.3334 59.3333C32.3334 63.0152 35.3181 66 39 66Z" stroke="#ED1C24" stroke-width="2"/>
<path fill-rule="evenodd" clip-rule="evenodd" d="M49.6667 79.3333C48.3334 73.1111 44.7778 70 39 70C33.2223 70 29.6667 73.1111 28.3334 79.3333H49.6667Z" stroke="#ED1C24" stroke-width="2" stroke-linecap="round" stroke-linejoin="round"/>
<path d="M66 66C69.6819 66 72.6667 63.0152 72.6667 59.3333C72.6667 55.6514 69.6819 52.6667 66 52.6667C62.3181 52.6667 59.3334 55.6514 59.3334 59.3333C59.3334 63.0152 62.3181 66 66 66Z" stroke="#ED1C24" stroke-width="2"/>
<path fill-rule="evenodd" clip-rule="evenodd" d="M76.6667 79.3333C75.3334 73.1111 71.7778 70 66 70C60.2223 70 56.6667 73.1111 55.3334 79.3333H76.6667Z" stroke="#ED1C24" stroke-width="2" stroke-linecap="round" stroke-linejoin="round"/>
<path d="M39 48V38" stroke="#ED1C24" stroke-width="2" stroke-linecap="round" stroke-linejoin="round" stroke-dasharray="1 4"/>
<path d="M17 47L27 36M61 47L51 36" stroke="#ED1C24" stroke-width="2" stroke-linecap="round" stroke-linejoin="round" stroke-dasharray="1 4"/>
</g>
<defs>
<clipPath id="clip0_3369_537">
<rect width="78" height="80" fill="white"/>
</clipPath>
</defs>
</svg>
