<svg width="80" height="80" viewBox="0 0 80 80" fill="none" xmlns="http://www.w3.org/2000/svg">
<g clip-path="url(#clip0_10_332)">
<path d="M13 21V4C13 2.34315 14.3431 1 16 1H76C77.6569 1 79 2.34315 79 4V50C79 51.6569 77.6569 53 76 53H45" stroke="#ED1C24" stroke-width="2"/>
<path d="M53 53H44V66H50C51.6569 66 53 64.6569 53 63V53Z" stroke="#ED1C24" stroke-width="2"/>
<path opacity="0.4" d="M48.5023 21C48.5023 21.8297 47.8296 22.5024 46.9999 22.5024C46.1701 22.5024 45.4974 21.8297 45.4974 21C45.4974 20.1702 46.1701 19.4976 46.9999 19.4976C47.8296 19.4976 48.5023 20.1702 48.5023 21Z" fill="#ED1C24"/>
<path opacity="0.4" d="M48.5023 10.5025C48.5023 11.3322 47.8296 12.0049 46.9999 12.0049C46.1701 12.0049 45.4974 11.3322 45.4974 10.5025C45.4974 9.67271 46.1701 9.00003 46.9999 9.00003C47.8296 9.00003 48.5023 9.67271 48.5023 10.5025Z" fill="#ED1C24"/>
<path d="M48.5023 15.7512C48.5023 16.5809 47.8296 17.2536 46.9999 17.2536C46.1701 17.2536 45.4974 16.5809 45.4974 15.7512C45.4974 14.9214 46.1701 14.2487 46.9999 14.2487C47.8296 14.2487 48.5023 14.9214 48.5023 15.7512Z" fill="#ED1C24"/>
<path d="M43.0522 11.1576C43.4671 11.8763 43.221 12.7951 42.5023 13.21C41.7837 13.6249 40.8648 13.3787 40.4499 12.6601C40.0351 11.9415 40.2813 11.0226 40.9998 10.6077C41.7185 10.1928 42.6374 10.4391 43.0522 11.1576Z" fill="#ED1C24"/>
<path d="M38.6601 14.4501C39.3787 14.8649 39.6248 15.7838 39.21 16.5025C38.7951 17.221 37.8762 17.4673 37.1576 17.0524C36.439 16.6375 36.1928 15.7186 36.6077 15C37.0226 14.2814 37.9414 14.0352 38.6601 14.4501Z" fill="#ED1C24"/>
<path d="M36.5024 19.4976C37.3321 19.4976 38.0048 20.1702 38.0048 21C38.0048 21.8297 37.3321 22.5024 36.5024 22.5024C35.6726 22.5024 35 21.8297 35 21C35 20.1702 35.6726 19.4976 36.5024 19.4976Z" fill="#ED1C24"/>
<path d="M45.4974 31.4974C45.4974 30.6677 46.1701 29.9951 46.9998 29.9951C47.8296 29.9951 48.5023 30.6677 48.5023 31.4974C48.5023 32.3272 47.8296 32.9999 46.9998 32.9999C46.1701 32.9999 45.4974 32.3272 45.4974 31.4974Z" fill="#ED1C24"/>
<path d="M50.9474 30.8423C50.5325 30.1237 50.7787 29.2048 51.4973 28.7899C52.2159 28.375 53.1348 28.6212 53.5497 29.3399C53.9646 30.0584 53.7183 30.9773 52.9998 31.3922C52.2812 31.8071 51.3623 31.5609 50.9474 30.8423Z" fill="#ED1C24"/>
<path d="M55.3397 27.5499C54.6211 27.135 54.3749 26.2161 54.7898 25.4975C55.2047 24.7789 56.1236 24.5327 56.8421 24.9476C57.5608 25.3625 57.807 26.2814 57.3921 26.9999C56.9772 27.7186 56.0583 27.9648 55.3397 27.5499Z" fill="#ED1C24"/>
<path opacity="0.4" d="M57.4976 22.5024C56.6678 22.5024 55.9951 21.8297 55.9951 21C55.9951 20.1702 56.6678 19.4976 57.4976 19.4976C58.3273 19.4976 58.9999 20.1702 58.9999 21C58.9999 21.8297 58.3273 22.5024 57.4976 22.5024Z" fill="#ED1C24"/>
<path opacity="0.4" d="M56.8422 17.0523C56.1236 17.4672 55.2047 17.221 54.7898 16.5024C54.3749 15.7838 54.6211 14.8649 55.3398 14.45C56.0583 14.0352 56.9772 14.2814 57.3921 15C57.807 15.7186 57.5608 16.6375 56.8422 17.0523Z" fill="#ED1C24"/>
<path opacity="0.4" d="M53.5497 12.6601C53.1348 13.3787 52.2159 13.6249 51.4973 13.21C50.7787 12.7951 50.5325 11.8763 50.9474 11.1576C51.3623 10.4391 52.2812 10.1928 52.9998 10.6077C53.7184 11.0226 53.9646 11.9415 53.5497 12.6601Z" fill="#ED1C24"/>
<path d="M43.2056 17.0745C43.9242 17.4893 44.1704 18.4082 43.7555 19.1268C43.3406 19.8454 42.4217 20.0916 41.7032 19.6767C40.9845 19.2619 40.7383 18.343 41.1532 17.6244C41.5681 16.9058 42.487 16.6596 43.2056 17.0745Z" fill="#ED1C24"/>
<path d="M45.4974 26.2487C45.4974 25.419 46.1701 24.7463 46.9998 24.7463C47.8296 24.7463 48.5023 25.419 48.5023 26.2487C48.5023 27.0785 47.8296 27.7512 46.9998 27.7512C46.1701 27.7512 45.4974 27.0785 45.4974 26.2487Z" fill="#ED1C24"/>
<path d="M50.7942 24.9255C50.0756 24.5106 49.8294 23.5917 50.2443 22.8731C50.6591 22.1545 51.578 21.9083 52.2966 22.3232C53.0152 22.7381 53.2614 23.6569 52.8466 24.3756C52.4316 25.0942 51.5128 25.3404 50.7942 24.9255Z" fill="#ED1C24"/>
<path d="M52.2966 19.6767C51.578 20.0916 50.6592 19.8454 50.2442 19.1268C49.8294 18.4082 50.0756 17.4893 50.7942 17.0745C51.5128 16.6596 52.4317 16.9058 52.8466 17.6244C53.2614 18.343 53.0153 19.2619 52.2966 19.6767Z" fill="#ED1C24"/>
<path d="M7 40V25C7 23.3431 8.34315 22 10 22H41C42.6569 22 44 23.3431 44 25V68C44 69.6569 42.6569 71 41 71H26" stroke="#ED1C24" stroke-width="2"/>
<path d="M22 41H4C2.34315 41 1 42.3431 1 44V76C1 77.6569 2.34315 79 4 79H22C23.6569 79 25 77.6569 25 76V44C25 42.3431 23.6569 41 22 41Z" stroke="#ED1C24" stroke-width="2"/>
<path d="M24 48H2V50H24V48Z" fill="#ED1C24"/>
<path d="M43 31H8V33H43V31Z" fill="#ED1C24"/>
<path d="M43 60H26V62H43V60Z" fill="#ED1C24"/>
<path fill-rule="evenodd" clip-rule="evenodd" d="M44 40H78V42H44V40Z" fill="#ED1C24"/>
<path d="M24 69H2V71H24V69Z" fill="#ED1C24"/>
</g>
<defs>
<clipPath id="clip0_10_332">
<rect width="80" height="80" fill="white"/>
</clipPath>
</defs>
</svg>
