<svg width="80" height="80" viewBox="0 0 80 80" fill="none" xmlns="http://www.w3.org/2000/svg">
<g clip-path="url(#clip0_47_299)">
<circle cx="40" cy="40" r="39" stroke="#ED1C24" stroke-width="2"/>
<path opacity="0.4" d="M49.0015 29C49.0015 29.5532 48.5531 30.0016 47.9999 30.0016C47.4467 30.0016 46.9983 29.5532 46.9983 29C46.9983 28.4468 47.4467 27.9984 47.9999 27.9984C48.5531 27.9984 49.0015 28.4468 49.0015 29Z" fill="#ED1C24"/>
<path opacity="0.4" d="M49.0015 22.0016C49.0015 22.5548 48.5531 23.0033 47.9999 23.0033C47.4467 23.0033 46.9983 22.5548 46.9983 22.0016C46.9983 21.4485 47.4467 21 47.9999 21C48.5531 21 49.0015 21.4485 49.0015 22.0016Z" fill="#ED1C24"/>
<path d="M49.0015 25.5008C49.0015 26.054 48.5531 26.5024 47.9999 26.5024C47.4467 26.5024 46.9983 26.054 46.9983 25.5008C46.9983 24.9476 47.4467 24.4992 47.9999 24.4992C48.5531 24.4992 49.0015 24.9476 49.0015 25.5008Z" fill="#ED1C24"/>
<path d="M45.3681 22.4384C45.6447 22.9175 45.4806 23.5301 45.0015 23.8067C44.5224 24.0832 43.9098 23.9191 43.6332 23.44C43.3567 22.961 43.5208 22.3484 43.9999 22.0718C44.4789 21.7952 45.0915 21.9594 45.3681 22.4384Z" fill="#ED1C24"/>
<path d="M42.44 24.6334C42.9191 24.9099 43.0832 25.5225 42.8066 26.0016C42.53 26.4807 41.9174 26.6448 41.4384 26.3682C40.9593 26.0917 40.7951 25.4791 41.0717 25C41.3483 24.5209 41.9609 24.3568 42.44 24.6334Z" fill="#ED1C24"/>
<path d="M41.0016 27.9984C41.5548 27.9984 42.0032 28.4468 42.0032 29C42.0032 29.5532 41.5548 30.0016 41.0016 30.0016C40.4484 30.0016 40 29.5532 40 29C40 28.4468 40.4484 27.9984 41.0016 27.9984Z" fill="#ED1C24"/>
<path d="M41.4383 31.6317C41.9174 31.3552 42.53 31.5193 42.8066 31.9983C43.0832 32.4774 42.9191 33.09 42.44 33.3666C41.9609 33.6432 41.3483 33.479 41.0717 33C40.7952 32.5209 40.9593 31.9083 41.4383 31.6317Z" fill="#ED1C24"/>
<path d="M43.6334 34.5599C43.91 34.0808 44.5226 33.9167 45.0016 34.1933C45.4807 34.4699 45.6448 35.0825 45.3683 35.5615C45.0917 36.0406 44.4791 36.2048 44 35.9282C43.5209 35.6515 43.3568 35.039 43.6334 34.5599Z" fill="#ED1C24"/>
<path d="M46.9983 35.9983C46.9983 35.4452 47.4467 34.9967 47.9999 34.9967C48.5531 34.9967 49.0015 35.4452 49.0015 35.9983C49.0015 36.5515 48.5531 36.9999 47.9999 36.9999C47.4467 36.9999 46.9983 36.5515 46.9983 35.9983Z" fill="#ED1C24"/>
<path d="M50.6316 35.5615C50.355 35.0825 50.5191 34.4699 50.9982 34.1933C51.4772 33.9167 52.0898 34.0808 52.3664 34.5599C52.643 35.039 52.4788 35.6516 51.9998 35.9281C51.5207 36.2047 50.9081 36.0406 50.6316 35.5615Z" fill="#ED1C24"/>
<path d="M53.5598 33.3666C53.0807 33.09 52.9166 32.4774 53.1932 31.9983C53.4698 31.5193 54.0824 31.3551 54.5614 31.6317C55.0405 31.9083 55.2047 32.5209 54.9281 33C54.6515 33.479 54.0389 33.6432 53.5598 33.3666Z" fill="#ED1C24"/>
<path opacity="0.4" d="M54.9983 30.0016C54.4452 30.0016 53.9967 29.5532 53.9967 29C53.9967 28.4468 54.4452 27.9984 54.9983 27.9984C55.5515 27.9984 55.9999 28.4468 55.9999 29C55.9999 29.5532 55.5515 30.0016 54.9983 30.0016Z" fill="#ED1C24"/>
<path opacity="0.4" d="M54.5615 26.3682C54.0824 26.6448 53.4698 26.4807 53.1932 26.0016C52.9166 25.5225 53.0808 24.9099 53.5598 24.6334C54.0389 24.3568 54.6515 24.5209 54.9281 25C55.2046 25.4791 55.0405 26.0917 54.5615 26.3682Z" fill="#ED1C24"/>
<path opacity="0.4" d="M52.3664 23.44C52.0898 23.9191 51.4772 24.0832 50.9982 23.8067C50.5191 23.5301 50.355 22.9175 50.6315 22.4384C50.9081 21.9594 51.5207 21.7952 51.9998 22.0718C52.4789 22.3484 52.643 22.961 52.3664 23.44Z" fill="#ED1C24"/>
<path d="M45.4704 26.383C45.9494 26.6596 46.1136 27.2721 45.837 27.7512C45.5604 28.2303 44.9478 28.3944 44.4688 28.1178C43.9897 27.8412 43.8255 27.2287 44.1021 26.7496C44.3787 26.2705 44.9913 26.1064 45.4704 26.383Z" fill="#ED1C24"/>
<path d="M44.4687 29.8821C44.9478 29.6055 45.5604 29.7697 45.837 30.2487C46.1136 30.7278 45.9494 31.3404 45.4704 31.617C44.9913 31.8936 44.3787 31.7294 44.1021 31.2504C43.8256 30.7713 43.9897 30.1587 44.4687 29.8821Z" fill="#ED1C24"/>
<path d="M46.9983 32.4992C46.9983 31.946 47.4467 31.4976 47.9999 31.4976C48.5531 31.4976 49.0015 31.946 49.0015 32.4992C49.0015 33.0523 48.5531 33.5008 47.9999 33.5008C47.4467 33.5008 46.9983 33.0523 46.9983 32.4992Z" fill="#ED1C24"/>
<path d="M50.5294 31.617C50.0504 31.3404 49.8862 30.7278 50.1628 30.2487C50.4394 29.7697 51.052 29.6055 51.531 29.8821C52.0101 30.1587 52.1743 30.7713 51.8977 31.2504C51.6211 31.7295 51.0085 31.8936 50.5294 31.617Z" fill="#ED1C24"/>
<path d="M51.5311 28.1178C51.052 28.3944 50.4394 28.2303 50.1628 27.7512C49.8862 27.2721 50.0504 26.6596 50.5294 26.383C51.0085 26.1064 51.6211 26.2705 51.8977 26.7496C52.1743 27.2287 52.0101 27.8412 51.5311 28.1178Z" fill="#ED1C24"/>
<path d="M25.423 33.643C26.2455 36.181 28.3135 37.497 31.1335 37.497C33.883 37.497 35.998 36.0635 36.7735 33.5725C37.032 32.7735 37.1495 31.387 37.1495 30.071V28.6845C37.1495 28.5435 37.0555 28.4495 36.9145 28.4495H31.627C31.486 28.4495 31.392 28.5435 31.392 28.6845V30.5645C31.392 30.7055 31.486 30.7995 31.627 30.7995H34.259C34.353 30.7995 34.4 30.8465 34.4 30.9405C34.4 31.857 34.306 32.515 34.1415 33.0085C33.7185 34.301 32.52 35.006 31.11 35.006C29.4885 35.006 28.5485 34.207 28.102 32.9145C27.914 32.327 27.82 31.5045 27.82 29.2485C27.82 26.969 27.914 26.17 28.102 25.5825C28.5485 24.29 29.4885 23.491 31.11 23.491C32.661 23.491 33.6245 24.196 34.3295 25.465C34.3765 25.559 34.494 25.6295 34.635 25.5825L36.609 24.713C36.7265 24.6425 36.75 24.5015 36.703 24.384C36.045 22.598 34.118 21 31.1335 21C28.3135 21 26.2455 22.316 25.423 24.854C25.094 25.841 25 26.734 25 29.2485C25 31.763 25.094 32.656 25.423 33.643Z" fill="#ED1C24"/>
<path d="M17.8131 58.745C17.8131 58.886 17.9071 58.98 18.0481 58.98H28.0591C28.2001 58.98 28.2941 58.886 28.2941 58.745V56.724C28.2941 56.583 28.2001 56.489 28.0591 56.489H20.7271C20.6331 56.489 20.5861 56.442 20.5861 56.348V43.235C20.5861 43.094 20.4921 43 20.3511 43H18.0481C17.9071 43 17.8131 43.094 17.8131 43.235V58.745Z" fill="#ED1C24"/>
<path d="M31.3238 58.745C31.3238 58.886 31.4178 58.98 31.5588 58.98H33.8618C34.0028 58.98 34.0968 58.886 34.0968 58.745V43.235C34.0968 43.094 34.0028 43 33.8618 43H31.5588C31.4178 43 31.3238 43.094 31.3238 43.235V58.745Z" fill="#ED1C24"/>
<path d="M44.1449 58.98C44.2859 58.98 44.3799 58.886 44.4269 58.745L49.5029 43.235C49.5499 43.094 49.4559 43 49.3149 43H47.0354C46.8709 43 46.7769 43.0705 46.7299 43.235L43.2989 54.562H43.2284L39.6564 43.235C39.6094 43.0705 39.5154 43 39.3509 43H37.0714C36.9304 43 36.8364 43.094 36.8834 43.235L41.9359 58.745C41.9829 58.886 42.0769 58.98 42.2179 58.98H44.1449Z" fill="#ED1C24"/>
<path d="M52.3095 58.745C52.3095 58.886 52.4035 58.98 52.5445 58.98H62.5555C62.6965 58.98 62.7905 58.886 62.7905 58.745V56.724C62.7905 56.583 62.6965 56.489 62.5555 56.489H55.2235C55.1295 56.489 55.0825 56.442 55.0825 56.348V52.306C55.0825 52.212 55.1295 52.165 55.2235 52.165H61.404C61.545 52.165 61.639 52.071 61.639 51.93V49.909C61.639 49.768 61.545 49.674 61.404 49.674H55.2235C55.1295 49.674 55.0825 49.627 55.0825 49.533V45.632C55.0825 45.538 55.1295 45.491 55.2235 45.491H62.5555C62.6965 45.491 62.7905 45.397 62.7905 45.256V43.235C62.7905 43.094 62.6965 43 62.5555 43H52.5445C52.4035 43 52.3095 43.094 52.3095 43.235V58.745Z" fill="#ED1C24"/>
</g>
<defs>
<clipPath id="clip0_47_299">
<rect width="80" height="80" fill="white"/>
</clipPath>
</defs>
</svg>
